<svg xmlns="http://www.w3.org/2000/svg" viewBox="0 0 1200 1200" width="1200" height="1200">
  <g fill="none" stroke="#ffffff" stroke-width="1" stroke-linecap="round" stroke-linejoin="round">
    <!-- Cluster 1 — links boven, grote heuvel -->
    <path d="M 80 280 C 120 180 250 130 380 170 C 510 210 580 320 570 430 C 560 540 460 600 340 580 C 220 560 110 480 90 380 C 80 340 80 310 80 280 Z" />
    <path d="M 120 290 C 155 205 270 165 380 200 C 490 235 545 320 540 415 C 535 510 450 565 350 550 C 250 535 150 470 130 385 C 122 350 120 320 120 290 Z" />
    <path d="M 160 305 C 190 230 285 200 380 230 C 475 260 515 325 515 405 C 515 485 445 535 360 525 C 275 515 190 460 175 390 C 165 360 162 330 160 305 Z" />
    <path d="M 200 325 C 225 260 295 235 380 260 C 460 285 490 335 490 400 C 490 465 440 510 365 503 C 295 495 230 455 215 395 C 207 370 203 350 200 325 Z" />
    <path d="M 240 350 C 260 295 305 275 375 295 C 445 315 465 350 465 395 C 465 440 425 480 365 477 C 305 472 270 445 255 400 C 248 380 244 365 240 350 Z" />
    <path d="M 280 380 C 295 335 320 320 370 335 C 420 350 435 370 435 400 C 435 430 405 455 365 455 C 325 455 295 435 285 405 C 280 395 281 388 280 380 Z" />
    <path d="M 320 400 C 330 375 345 365 365 372 C 390 380 400 390 400 405 C 400 420 385 432 365 432 C 345 432 325 422 320 408 Z" />

    <!-- Cluster 2 — rechts midden, kleinere heuvel -->
    <path d="M 800 720 C 830 660 940 640 1010 670 C 1080 700 1110 770 1090 830 C 1070 890 990 920 910 905 C 830 890 770 830 765 770 C 763 750 770 735 800 720 Z" />
    <path d="M 825 735 C 855 685 940 670 1000 695 C 1060 720 1085 775 1070 825 C 1055 875 985 900 920 887 C 855 875 800 825 795 775 C 793 760 800 745 825 735 Z" />
    <path d="M 850 750 C 875 710 940 700 990 720 C 1040 740 1060 780 1050 820 C 1040 860 985 880 930 870 C 875 860 830 820 825 780 C 823 770 830 760 850 750 Z" />
    <path d="M 875 770 C 895 740 940 735 980 750 C 1020 765 1035 795 1030 820 C 1025 845 985 860 940 853 C 895 847 860 820 855 790 C 853 783 860 778 875 770 Z" />
    <path d="M 900 790 C 915 770 940 770 970 780 C 1000 790 1010 810 1005 825 C 1000 840 975 850 945 845 C 915 840 890 825 885 805 C 884 800 890 795 900 790 Z" />

    <!-- Cluster 3 — onderaan midden, langgerekt -->
    <path d="M 350 950 C 420 910 580 905 720 925 C 860 945 920 990 905 1040 C 890 1090 760 1115 600 1100 C 440 1085 320 1045 305 1005 C 297 985 305 970 350 950 Z" />
    <path d="M 380 965 C 445 935 580 930 705 945 C 830 960 885 995 875 1035 C 865 1075 750 1095 605 1083 C 460 1071 350 1037 340 1005 C 333 990 340 980 380 965 Z" />
    <path d="M 410 980 C 470 960 580 955 690 967 C 800 980 850 1005 845 1030 C 840 1055 745 1075 615 1065 C 485 1055 385 1030 375 1010 C 370 1000 380 990 410 980 Z" />
    <path d="M 440 995 C 500 980 580 980 675 990 C 770 1000 815 1015 815 1030 C 815 1045 745 1058 625 1050 C 505 1042 420 1025 415 1015 C 412 1010 420 1003 440 995 Z" />

    <!-- Open lijnen — geen gesloten loop, voor variatie -->
    <path d="M 700 100 C 800 130 900 200 950 280 C 1000 360 1020 460 1000 540" />
    <path d="M 740 120 C 830 150 910 215 950 290 C 990 365 1000 445 985 520" />
    <path d="M 60 600 C 130 640 200 720 230 800 C 260 880 250 950 220 1010" />
    <path d="M 100 600 C 160 640 220 715 245 790 C 270 865 263 925 240 985" />
    <path d="M 1100 200 C 1110 280 1100 360 1080 440" />
    <path d="M 1140 220 C 1150 290 1140 360 1125 430" />
  </g>
</svg>
